PathFileType	4	(X/Y/Z)	/Users/itak/Documents/Research/Walk-IL/dataset/trc/00418_00012.trc
DataRate	CameraRate	NumFrames	NumMarkers	Units	OrigDataRate	OrigDataStartFrame	OrigNumFrames
100.000000	100.000000	4	54	mm	100.000000	310	355
Frame#	Time	RPSI			LPSI			L3			STRN			T10			C7			CLAV			RBAK			LBAK			LSHO			LUPA			LAEL			LAOL			LWTS			LWPS			LFRA			LHPS			LHTS			RSHO			RUPA			RAEL			RAOL			RWTS			RWPS			RFRA			RIFD			RHPS			RBHD			LFHD			RFHD			LBHD			LHIP			RHIP			RASI			LASI			LKNE			LTHI			LANK			LTIP			LTOE			LMT1			LMT5			LHEE			RKNE			RTHI			RANK			RTIP			RTOE			RMT1			RMT5			RHEE			RHTS			LIFD			*53			
		X1	Y1	Z1	X2	Y2	Z2	X3	Y3	Z3	X4	Y4	Z4	X5	Y5	Z5	X6	Y6	Z6	X7	Y7	Z7	X8	Y8	Z8	X9	Y9	Z9	X10	Y10	Z10	X11	Y11	Z11	X12	Y12	Z12	X13	Y13	Z13	X14	Y14	Z14	X15	Y15	Z15	X16	Y16	Z16	X17	Y17	Z17	X18	Y18	Z18	X19	Y19	Z19	X20	Y20	Z20	X21	Y21	Z21	X22	Y22	Z22	X23	Y23	Z23	X24	Y24	Z24	X25	Y25	Z25	X26	Y26	Z26	X27	Y27	Z27	X28	Y28	Z28	X29	Y29	Z29	X30	Y30	Z30	X31	Y31	Z31	X32	Y32	Z32	X33	Y33	Z33	X34	Y34	Z34	X35	Y35	Z35	X36	Y36	Z36	X37	Y37	Z37	X38	Y38	Z38	X39	Y39	Z39	X40	Y40	Z40	X41	Y41	Z41	X42	Y42	Z42	X43	Y43	Z43	X44	Y44	Z44	X45	Y45	Z45	X46	Y46	Z46	X47	Y47	Z47	X48	Y48	Z48	X49	Y49	Z49	X50	Y50	Z50	X51	Y51	Z51	X52	Y52	Z52	X53	Y53	Z53	X54	Y54	Z54	

311	3.1	290.0684509277344	983.26025390625	356.8022766113281	421.4557800292969	974.3079833984375	351.7796936035156	355.2742309570312	1055.052490234375	351.3942565917969	352.2044677734375	1217.560424804688	586.4196166992188	364.25830078125	1157.451538085938	339.4241333007812	377.2925720214844	1408.111694335938	369.6943054199219	357.4232177734375	1334.479248046875	528.9523315429688	311.2538757324219	1261.16552734375	324.6879272460938	479.611083984375	1370.912109375	365.4186096191406	521.7166748046875	1390.182373046875	455.1045532226562	592.7630004882812	1272.06103515625	441.8487854003906	619.1007080078125	1078.449584960938	474.7602844238281	558.0646362304688	1050.48095703125	420.1904602050781	586.8517456054688	914.3551635742188	631.0703735351562	645.13037109375	880.7446899414062	582.8696899414062	631.0535278320312	986.4181518554688	515.1350708007812	638.1944580078125	806.1434936523438	628.0093383789062	608.7234497070312	828.2607421875	680.2601928710938	215.8659515380859	1389.703979492188	412.6234130859375	159.3348236083984	1326.928466796875	391.7792663574219	111.6939544677734	1067.496337890625	381.3008728027344	205.8171539306641	1054.814208984375	375.6691589355469	112.4949188232422	853.8213500976562	512.8819580078125	58.86452102661133	843.5390625	461.5960083007812	88.73747253417969	1003.537719726562	403.0211486816406	97.90093994140625	678.7937622070312	513.7821044921875	54.58840942382812	756.3840942382812	466.1904296875	274.054931640625	1595.80126953125	435.4481811523438	451.6759643554688	1607.279418945312	519.7632446289062	334.5357055664062	1612.547241210938	553.2521362304688	422.0326538085938	1585.033081054688	375.5282592773438	534.6181640625	965.1700439453125	439.4346618652344	175.5473937988281	963.7061767578125	444.2195739746094	232.5058135986328	976.7649536132812	574.0128173828125	495.3735656738281	967.0308837890625	555.8406982421875	504.5672607421875	472.5871276855469	487.9405517578125	519.1380004882812	615.3264770507812	480.5805358886719	448.1800537109375	33.59737014770508	412.0259399414062	487.6421203613281	239.8455505371094	447.7129821777344	369.5029296875	44.2081413269043	619.4329223632812	346.499267578125	46.1058235168457	540.23193359375	450.9615783691406	35.33520889282227	539.7800903320312	393.8813171386719	35.54582214355469	370.9466857910156	189.8112640380859	476.3568420410156	500.2497253417969	171.4645080566406	743.006591796875	528.010986328125	209.473876953125	53.89839553833008	451.3266296386719	202.2833862304688	349.4302062988281	511.2425842285156	269.7411804199219	38.08029174804688	632.248291015625	302.6964111328125	40.10368347167969	556.6795654296875	203.0676727294922	44.42576217651367	536.0913696289062	263.5289916992188	38.76314544677734	379.8020324707031	86.89501953125	749.4788208007812	527.2244873046875	594.4125366210938	744.967041015625	695.9764404296875	nan	nan	nan	
312	3.11	289.3486328125	983.5137939453125	358.3954772949219	420.7005004882812	974.396484375	353.0512390136719	354.5649108886719	1055.146606445312	352.9833679199219	352.3567810058594	1217.350219726562	587.9583129882812	363.5093383789062	1157.454467773438	340.9851684570312	376.768310546875	1408.121215820312	371.2877197265625	357.5055847167969	1334.326538085938	530.5528564453125	310.4783630371094	1261.184326171875	326.4732666015625	479.0492248535156	1370.829833984375	366.6456298828125	521.5167846679688	1389.964599609375	456.1933288574219	592.524658203125	1271.879638671875	442.5569458007812	618.5365600585938	1077.856567382812	475.0267333984375	557.357666015625	1050.378784179688	420.4556274414062	585.3048095703125	909.4374389648438	627.6066284179688	643.4139404296875	876.8079833984375	578.5615234375	630.0679931640625	984.4745483398438	513.86181640625	636.086181640625	801.1074829101562	621.632568359375	606.5982055664062	821.9788208007812	674.4269409179688	215.5148162841797	1389.746704101562	414.8485717773438	158.7328796386719	1326.978149414062	394.3131103515625	110.3442535400391	1067.631469726562	384.7406921386719	204.3784942626953	1054.6044921875	378.5804443359375	111.2891693115234	854.62109375	517.2886352539062	57.41547393798828	844.199951171875	466.3623352050781	87.37664031982422	1003.794677734375	406.8626098632812	96.07756042480469	679.67236328125	519.421142578125	52.73885345458984	757.1091918945312	471.482177734375	273.7630615234375	1595.771484375	437.3322143554688	451.5455627441406	1607.256469726562	521.281982421875	334.4566040039062	1612.532470703125	555.0039672851562	421.6168518066406	1585.006469726562	377.1139526367188	534.1073608398438	964.8297729492188	440.4034118652344	174.368408203125	963.6399536132812	446.9925842285156	232.3481903076172	976.642333984375	575.7557373046875	495.1005554199219	966.6244506835938	556.898681640625	504.373291015625	472.5421752929688	487.9534606933594	518.8434448242188	615.2761840820312	480.9275207519531	447.9965515136719	33.65912628173828	412.0152893066406	487.472900390625	239.9044799804688	447.5684509277344	369.4653015136719	44.13321685791016	619.5216064453125	346.48388671875	46.04082870483398	540.2444458007812	450.9215087890625	35.36684799194336	539.7640991210938	393.7409973144531	35.54858779907227	370.9393005371094	188.888671875	476.378662109375	498.783203125	170.3651733398438	743.7167358398438	529.5723876953125	209.4123077392578	53.72990036010742	451.3169860839844	201.4648590087891	349.5591125488281	509.8195190429688	269.6986083984375	38.10601425170898	632.20654296875	302.6614990234375	40.23493576049805	556.6578979492188	202.9417419433594	44.32378768920898	536.049072265625	263.3450927734375	38.70310974121094	379.7433776855469	85.51117706298828	750.4945068359375	532.5084228515625	591.7156982421875	738.377685546875	687.9110717773438	nan	nan	nan	
313	3.12	288.6492614746094	983.7290649414062	359.9273376464844	419.9736938476562	974.4744262695312	354.2952880859375	353.883056640625	1055.267211914062	354.5756225585938	352.4869079589844	1217.148193359375	589.4407348632812	362.7837524414062	1157.438720703125	342.5044555664062	376.239013671875	1408.116577148438	372.8194580078125	357.5704956054688	1334.1748046875	532.0980834960938	309.7233276367188	1261.184936523438	328.2046203613281	478.4901428222656	1370.734375	367.8330993652344	521.3148193359375	1389.74462890625	457.2498779296875	592.2904663085938	1271.723388671875	443.2797546386719	618.0065307617188	1077.339721679688	475.3700256347656	556.77099609375	1050.338500976562	420.7381286621094	583.7791137695312	904.5960693359375	624.0575561523438	641.74365234375	873.0260620117188	574.2111206054688	629.12939453125	982.615478515625	512.6448364257812	634.0404052734375	796.271728515625	615.138427734375	604.4677124023438	815.8262939453125	668.426025390625	215.1603851318359	1389.777587890625	416.9909973144531	158.1376495361328	1327.00048828125	396.7680969238281	109.0517959594727	1067.744384765625	388.1210021972656	203.0077514648438	1054.3916015625	381.4717712402344	110.0869598388672	855.4072265625	521.6251220703125	55.99668884277344	844.8535766601562	471.0321350097656	86.05879974365234	1004.034484863281	410.6303100585938	94.17816162109375	680.5523681640625	524.9337158203125	50.94089508056641	757.8385009765625	476.684814453125	273.4867248535156	1595.732788085938	439.1933898925781	451.4149780273438	1607.214111328125	522.7752685546875	334.3907775878906	1612.4853515625	556.7329711914062	421.1951293945312	1584.983520507812	378.6636962890625	533.55224609375	964.510498046875	441.3617553710938	173.3467407226562	963.5692138671875	449.5045776367188	232.1740264892578	976.5044555664062	577.4385375976562	494.8064880371094	966.2442626953125	557.93798828125	504.1381225585938	472.5009460449219	488.0936584472656	518.4961547851562	615.2200317382812	481.3579711914062	447.8070983886719	33.72919464111328	412.0158081054688	487.3044738769531	239.9779205322266	447.52392578125	369.4237670898438	44.03194046020508	619.6367797851562	346.4622802734375	45.9705810546875	540.2647094726562	450.864013671875	35.3922233581543	539.7553100585938	393.6023254394531	35.5649299621582	370.9384460449219	188.0256195068359	476.3847961425781	497.4332275390625	169.2042846679688	744.3959350585938	531.15576171875	209.3596801757812	53.56306457519531	451.3116760253906	200.6546783447266	349.6732788085938	508.4519348144531	269.6514892578125	38.14109039306641	632.152587890625	302.6142272949219	40.38562393188477	556.6311645507812	202.8104553222656	44.22235107421875	536.0051879882812	263.1551208496094	38.64719009399414	379.6823120117188	84.14549255371094	751.515625	537.7245483398438	589.1976318359375	731.980712890625	679.6317749023438	nan	nan	nan	
314	3.13	287.9791259765625	983.9204711914062	361.4007568359375	419.2763061523438	974.5521240234375	355.5132141113281	353.2356262207031	1055.424194335938	356.1726989746094	352.5919189453125	1216.96240234375	590.8726806640625	362.0882263183594	1157.40673828125	343.9795532226562	375.711669921875	1408.100219726562	374.2919311523438	357.6134033203125	1334.027465820312	533.5909423828125	308.9850769042969	1261.17138671875	329.8791809082031	477.9407653808594	1370.629638671875	368.9836730957031	521.1116943359375	1389.526245117188	458.2790222167969	592.0582885742188	1271.595581054688	444.0214233398438	617.510986328125	1076.90283203125	475.7946472167969	556.3001708984375	1050.356567382812	421.0407409667969	582.2848510742188	899.8602905273438	620.4353637695312	640.134033203125	869.4398803710938	569.8579711914062	628.2388916015625	980.8663330078125	511.4986572265625	632.0629272460938	791.6668701171875	608.5548095703125	602.3524780273438	809.8410034179688	662.2791137695312	214.8069458007812	1389.803344726562	419.0457458496094	157.5549926757812	1327.00927734375	399.1354370117188	107.8135070800781	1067.846557617188	391.4325866699219	201.7016906738281	1054.184204101562	384.3334045410156	108.8940200805664	856.1857299804688	525.8924560546875	54.60919952392578	845.5053100585938	475.5983276367188	84.78488159179688	1004.266296386719	414.3163757324219	92.22270202636719	681.438232421875	530.3135986328125	49.21382522583008	758.572509765625	481.7928771972656	273.2261352539062	1595.686645507812	441.0318908691406	451.2840576171875	1607.15869140625	524.241455078125	334.3404235839844	1612.407958984375	558.4398193359375	420.7698059082031	1584.969116210938	380.1787414550781	532.9677734375	964.2365112304688	442.3178100585938	172.5639801025391	963.5242919921875	451.6080932617188	231.9698638916016	976.3582763671875	579.0560913085938	494.5027160644531	965.9129028320312	558.9663696289062	503.858154296875	472.4623107910156	488.3607788085938	518.0994262695312	615.1612548828125	481.8684997558594	447.6178283691406	33.80749130249023	412.0262756347656	487.1393432617188	240.0624542236328	447.5773620605469	369.3786315917969	43.90921783447266	619.7711181640625	346.4347534179688	45.89662933349609	540.291259765625	450.7894897460938	35.4091796875	539.7550659179688	393.4656982421875	35.59548568725586	370.9420166015625	187.2131652832031	476.3730163574219	496.1991882324219	168.123291015625	744.8763427734375	532.5302734375	209.3081359863281	53.39952850341797	451.3061828613281	199.8501434326172	349.7702941894531	507.154052734375	269.5989685058594	38.18411636352539	632.087646484375	302.5573425292969	40.55403137207031	556.5997924804688	202.6737365722656	44.12283325195312	535.9599609375	262.9635314941406	38.59465026855469	379.6211547851562	82.79021453857422	752.54150390625	542.8539428710938	586.82275390625	725.80126953125	671.126708984375	nan	nan	nan	
